<?xml version="1.0" encoding="UTF-8"?>
<svg id="Layer_1" data-name="Layer 1" xmlns="http://www.w3.org/2000/svg" viewBox="0 0 1068.65 594.32">
  <defs>
    <style>
      .cls-1 {
        fill: none;
      }

      .cls-1, .cls-2, .cls-3, .cls-4 {
        stroke: #fff;
        stroke-miterlimit: 10;
      }

      .cls-2 {
        font-family: TenorSans, 'Tenor Sans';
        font-size: 200.74px;
      }

      .cls-2, .cls-3, .cls-4 {
        fill: #fff;
      }

      .cls-3 {
        font-family: ShadowsIntoLightTwo-Regular, 'Shadows Into Light Two';
        font-size: 85.88px;
      }

      .cls-5 {
        letter-spacing: -.09em;
      }

      .cls-6 {
        letter-spacing: .06em;
      }
    </style>
  </defs>
  <line class="cls-4" x1="507.56" y1="399.58" x2="529.83" y2="419.56"/>
  <line class="cls-4" x1="488.5" y1="415.56" x2="529.63" y2="461.98"/>
  <line class="cls-4" x1="469.42" y1="425.55" x2="518.49" y2="497.05"/>
  <line class="cls-4" x1="316.84" y1="454.67" x2="277.95" y2="594.19"/>
  <line class="cls-4" x1="435.77" y1="438.77" x2="461.96" y2="504.66"/>
  <line class="cls-4" x1="359.94" y1="453.49" x2="359.94" y2="532.31"/>
  <line class="cls-4" x1="393.45" y1="448.51" x2="404.06" y2="501.44"/>
  <line class="cls-4" x1="159.93" y1="313.97" x2="25.32" y2="335.49"/>
  <line class="cls-4" x1="175.39" y1="361.9" x2="31.54" y2="460.66"/>
  <line class="cls-4" x1="166.14" y1="335.44" x2="61.45" y2="381.1"/>
  <line class="cls-4" x1="52.47" y1="384.68" x2="7.66" y2="404.75"/>
  <line class="cls-4" x1="199.57" y1="392.01" x2="136.83" y2="461.3"/>
  <line class="cls-4" x1="232.99" y1="420.38" x2="175.39" y2="518.27"/>
  <line class="cls-4" x1="171.78" y1="524.43" x2="163.26" y2="540.37"/>
  <line class="cls-4" x1="270.93" y1="438.77" x2="244.84" y2="511.89"/>
  <path class="cls-4" d="M154.95,278.18c-51.64,3.19-103.28,6.38-154.92,9.57"/>
  <line class="cls-4" x1="150.39" y1="254.89" x2="31.54" y2="254.68"/>
  <path class="cls-1" d="M248.41,57.66c15.83-21.94,51.21-37.21,92.33-37.21s76.5,15.28,92.33,37.22"/>
  <path class="cls-1" d="M161.03,58.48c5.28-.53,16.41-1.65,30.87-3.09,22.96-2.28,24.59-2.62,28.14-4.16,13.97-6.08,22.51-19.7,27.59-33.38,2.26-6.08,4.69-13.07,10.98-15.6"/>
  <line class="cls-4" x1="153.36" y1="226.85" x2="71.87" y2="217.9"/>
  <line class="cls-4" x1="64.29" y1="217.1" x2="26.45" y2="212.65"/>
  <path class="cls-1" d="M521.59,58.48c-5.28-.53-16.41-1.65-30.87-3.09-22.96-2.28-24.59-2.62-28.14-4.16-13.97-6.08-22.51-19.7-27.59-33.38-2.26-6.08-4.69-13.07-10.98-15.6"/>
  <path class="cls-4" d="M257.09,1.92c26.88-.9,55.52-1.43,85.72-1.42,29.28.01,57.08.54,83.24,1.42"/>
  <circle class="cls-1" cx="71.52" cy="127.3" r="16.19"/>
  <path class="cls-1" d="M492.68,56.95c9.54-.95,10.22-1.09,11.69-1.73,5.8-2.52,9.35-8.18,11.46-13.87.94-2.52,1.95-5.43,4.56-6.48"/>
  <path class="cls-1" d="M616.82,56.95c-9.54-.95-10.22-1.09-11.69-1.73-5.8-2.52-9.35-8.18-11.46-13.87-.94-2.52-1.95-5.43-4.56-6.48"/>
  <path class="cls-4" d="M519.76,34.85c11.17-.7,23.06-1.11,35.61-1.1,12.17.01,23.72.42,34.58,1.1"/>
  <path class="cls-1" d="M676.96,179.35v-80.11c0-2.78-.28-17.56-12.22-29.5-7.55-7.55-17.98-12.22-29.5-12.22H46.22c-23.04,0-41.71,18.68-41.71,41.71v154.01"/>
  <path class="cls-4" d="M470.41,356.75c-28.13,32.64-70.55,53.43-118,53.43-83.63,0-151.61-64.55-153.33-144.82-.05-1.46-.07-2.92-.07-4.39,0-82.01,68.93-148.5,153.96-148.5,51.08,0,96.33,23.99,124.34,60.93.42,0,.83.01,1.25.02,2.01.03,4.01.09,5.99.18,2.77.12,5.51.28,8.22.5-7.85-12.82-28.39-42.39-67.12-59.97-34.7-15.75-65.5-12.7-81.67-12.15-61.33,2.1-124.9,32.18-150.8,90.01-79.26,197.22,163.13,304.92,302.24,169.15v-.1c-2.22-.47-5.44-1.13-9.33-1.86-7.78-1.46-12.57-2.35-15.68-2.43Z"/>
  <text class="cls-3" transform="translate(708.73 418.37)"><tspan class="cls-5" x="0" y="0">T</tspan><tspan x="48.81" y="0">he Lig</tspan><tspan class="cls-6" x="274.24" y="0">h</tspan><tspan x="322.05" y="0">t</tspan></text>
  <path class="cls-1" d="M676.96,347.86v76.45c0,29.64-13.14,51.38-36.18,51.38l-101.97,2.62"/>
  <text class="cls-2" transform="translate(382.55 324.73) scale(1.12 1)"><tspan x="0" y="0">apture</tspan></text>
</svg>