<?xml version="1.0" encoding="UTF-8"?>
<svg id="Layer_1" data-name="Layer 1" xmlns="http://www.w3.org/2000/svg" viewBox="0 0 701.21 225.91">
  <defs>
    <style>
      .cls-1, .cls-2, .cls-3, .cls-4, .cls-5, .cls-6, .cls-7 {
        stroke: #fff;
      }

      .cls-1, .cls-2, .cls-3, .cls-6, .cls-7 {
        stroke-miterlimit: 10;
      }

      .cls-1, .cls-3 {
        fill: none;
      }

      .cls-2, .cls-3 {
        stroke-width: 4px;
      }

      .cls-2, .cls-4, .cls-5, .cls-6, .cls-7 {
        fill: #fff;
      }

      .cls-4 {
        stroke-width: .75px;
      }

      .cls-6 {
        stroke-width: 2px;
      }

      .cls-7 {
        font-family: TenorSans, 'Tenor Sans';
        font-size: 76.24px;
      }
    </style>
  </defs>
  <text class="cls-7" transform="translate(258.68 95.96)"><tspan x="0" y="0">CAPTURE</tspan><tspan x="0" y="65.59">THE LIGHT</tspan></text>
  <path class="cls-4" d="M176.34,136.31c-1.23-.13-2.12-1.27-1.96-2.5,0,0,0-.01,0-.02.63-4.84,1.15-10.22,1.36-16.01.29-9.75-.01-20.98-1.54-29.55-.11-.5-.26-.95-.53-1.29-.62-.84-1.83-.87-2.79-.87-5.22,0-10.46,0-15.68,0-.88,0-1.92-.16-2.31-1.1-.39-.91-.46-3.12.68-3.17,7.38.1,43.79-.32,48.52.11.79.03.47,2.95.38,3.43-.09.49-.46.73-.92.72-1.1.02-3.11.02-5.46.03-2.44,0-5.25,0-7.8,0-2.01,0-3.87-.01-5.26.01-.51.01-1.1.12-1.34.61-.32.63-.1,1.71-.01,2.48,1.1,8.2,1.72,18.72,1.35,27.92-.26,6.4-.68,12.12-1.56,17.51-.1.48-.28.85-.52,1.13-.62.72-2.91.77-4.61.58ZM207.89,110.67,191.62,140.55"/>
  <path class="cls-5" d="M188.31,136.48c1.02-6.7,1.74-14.45,1.75-23.05,0-8.37-.67-15.93-1.63-22.5,1.04-.65,3.32-.26,4.8-.33,1.3,6.22,2.34,13.71,2.5,22.21.14,7.63-.47,14.44-1.35,20.24,7.05.14,17.13.09,24.07.18.44-.04.49.19.19.38-1.23.76-3.06,2.84-4.9,3.07-4.14.08-8.39.1-12.75.06-4.33-.04-8.56-.13-12.68-.27Z"/>
  <line class="cls-6" x1="182.76" y1="157.24" x2="190.85" y2="164.49"/>
  <line class="cls-6" x1="175.84" y1="163.04" x2="190.77" y2="179.89"/>
  <line class="cls-6" x1="168.92" y1="166.66" x2="186.73" y2="192.62"/>
  <line class="cls-6" x1="112.37" y1="175" x2="98.25" y2="225.65"/>
  <line class="cls-6" x1="156.7" y1="171.46" x2="166.21" y2="195.38"/>
  <line class="cls-6" x1="129.17" y1="176.81" x2="129.17" y2="205.42"/>
  <line class="cls-6" x1="141.34" y1="175" x2="145.19" y2="194.21"/>
  <line class="cls-6" x1="56.56" y1="126.16" x2="7.7" y2="133.97"/>
  <line class="cls-6" x1="62.18" y1="143.56" x2="9.96" y2="179.41"/>
  <line class="cls-6" x1="58.82" y1="133.95" x2="20.82" y2="150.53"/>
  <line class="cls-6" x1="70.96" y1="154.49" x2="48.18" y2="179.64"/>
  <line class="cls-6" x1="83.09" y1="164.79" x2="62.18" y2="200.32"/>
  <line class="cls-6" x1="60.87" y1="202.56" x2="57.78" y2="208.35"/>
  <line class="cls-6" x1="96.86" y1="171.46" x2="87.39" y2="198.01"/>
  <path class="cls-6" d="M54.76,113.16c-12.39.75-24.79,1.49-37.18,2.24"/>
  <line class="cls-6" x1="53.1" y1="104.74" x2="1.29" y2="104.63"/>
  <path class="cls-3" d="M89.04,29.73c5.75-7.96,18.59-13.51,33.52-13.51s27.77,5.55,33.52,13.51"/>
  <path class="cls-3" d="M57.32,30.03c1.92-.19,5.96-.6,11.21-1.12,8.34-.83,8.93-.95,10.21-1.51,5.07-2.21,8.17-7.15,10.01-12.12.82-2.21,1.7-4.75,3.99-5.66"/>
  <line class="cls-6" x1="54.18" y1="94.53" x2="24.6" y2="91.28"/>
  <line class="cls-6" x1="21.85" y1="90.99" x2="8.11" y2="89.38"/>
  <path class="cls-3" d="M188.21,30.02c-1.92-.19-5.96-.6-11.21-1.12-8.34-.83-8.93-.95-10.21-1.51-5.07-2.21-8.17-7.15-10.01-12.12-.82-2.21-1.7-4.75-3.99-5.66"/>
  <path class="cls-2" d="M92.19,9.59c9.76-.61,20.15-.97,31.12-.96,10.63,0,20.72.36,30.22.96"/>
  <circle class="cls-2" cx="24.83" cy="55.01" r="5.88"/>
  <path class="cls-2" d="M177.72,29.47c3.46-.34,3.71-.39,4.24-.63,2.11-.92,3.39-2.97,4.16-5.03.34-.92.71-1.97,1.66-2.35"/>
  <path class="cls-2" d="M222.78,29.47c-3.46-.34-3.71-.39-4.24-.63-2.11-.92-3.39-2.97-4.16-5.03-.34-.92-.71-1.97-1.66-2.35"/>
  <path class="cls-2" d="M187.55,21.45c4.05-.25,8.37-.4,12.93-.4,4.42,0,8.61.15,12.55.4"/>
  <path class="cls-1" d="M194.46,182.43l37.02-.74c8.36,0,13.13-6.13,13.13-14.49V44.83c0-8.36-6.78-15.14-15.14-15.14H15.64c-8.36,0-15.14,6.78-15.14,15.14v55.91"/>
  <path class="cls-5" d="M169.28,141.69c-10.21,11.85-25.61,19.4-42.84,19.4-30.36,0-55.04-23.43-55.66-52.57-.02-.53-.03-1.06-.03-1.59,0-29.77,25.02-53.91,55.89-53.91,18.54,0,34.97,8.71,45.14,22.12.15,0,.3,0,.45,0,.73.01,1.46.03,2.17.06,1.01.04,2,.1,2.98.18-2.85-4.65-10.3-15.39-24.37-21.77-12.6-5.72-23.78-4.61-29.65-4.41-22.26.76-45.34,11.68-54.75,32.68-28.77,71.59,59.22,110.69,109.72,61.41v-.04c-.81-.17-1.97-.41-3.39-.67-2.82-.53-4.56-.85-5.69-.88Z"/>
  <text/>
</svg>